<?xml version="1.0" standalone="no"?>
<!DOCTYPE svg PUBLIC "-//W3C//DTD SVG 20010904//EN"
 "http://www.w3.org/TR/2001/REC-SVG-20010904/DTD/svg10.dtd">
<svg version="1.0" xmlns="http://www.w3.org/2000/svg"
 width="412.000000pt" height="348.000000pt" viewBox="0 0 412.000000 348.000000"
 preserveAspectRatio="xMidYMid meet">

<g transform="translate(0.000000,348.000000) scale(0.100000,-0.100000)"
fill="#000000" stroke="none">
<path d="M2399 3127 c-60 -17 -100 -43 -138 -90 -136 -171 -3 -429 213 -415
177 11 285 169 234 340 -15 52 -87 132 -136 151 -57 23 -122 28 -173 14z"/>
<path d="M1241 2454 c-118 -59 -150 -210 -64 -305 85 -94 197 -101 287 -19
106 98 81 266 -47 326 -67 31 -110 30 -176 -2z"/>
</g>
</svg>
